# xmcd
#
# Track frame offsets: 
#        150
#        14365
#        31756
#        46368
#        64158
#        79008
#        90339
#        103873
#        114854
#        135464
#
# Disc length: 2283 seconds
#
# Revision: 0
# Processed by: cddbd v1.5.2PL0 Copyright (c) Steve Scherf et al.
# Submitted via: ExactAudioCopy v0.95b4
#
DISCID=7008e90a
DTITLE=Taylor Farley And Blue Rock - Beat This
DYEAR=2006
DGENRE=Bluegrass
TTITLE0=Wipeout
TTITLE1=The Devil Came Up To Newport
TTITLE2=Ticket To Ride
TTITLE3=Wish You Were Here
TTITLE4=That Ol' Newport Stomp
TTITLE5=You Really Got A Hold On Me
TTITLE6=These Boots Are Made For Walkin'
TTITLE7=The Great Big Woman (And The Little Bitty Bottle Of Wine)
TTITLE8=Juanita
TTITLE9=10 - Freebird
EXTD=
EXTT0=
EXTT1=
EXTT2=
EXTT3=
EXTT4=
EXTT5=
EXTT6=
EXTT7=
EXTT8=
EXTT9=
PLAYORDER=
